<svg xmlns="http://www.w3.org/2000/svg" xmlns:xlink="http://www.w3.org/1999/xlink" version="1.1" x="0px" y="0px" viewBox="0 0 96 96"><path d="M78.445,24.444h8.146v19.951l-46.577,6.603v10.877c0.052-0.013,0.105-0.018,0.157-0.029c0.088-0.02,0.176-0.033,0.265-0.049  c0.158-0.029,0.317-0.057,0.478-0.073c0.014-0.001,0.026-0.001,0.039-0.002c0.213-0.021,0.425-0.039,0.641-0.039  c0.189,0,0.379,0.018,0.568,0.035c0.041,0.004,0.082,0.004,0.123,0.008c0.139,0.015,0.274,0.04,0.411,0.063  c0.115,0.02,0.229,0.038,0.344,0.063c0.044,0.01,0.089,0.014,0.132,0.024v-8.141l46.578-6.59V21.287H78.445V24.444z"/><path d="M43.625,63.611c-0.115-0.051-0.241-0.074-0.36-0.116c-0.888-0.313-1.868-0.378-2.789-0.18  c-0.31,0.071-0.614,0.163-0.907,0.293c-1.851,0.819-3.047,2.644-3.047,4.647v12.25c0,1.337,0.543,2.641,1.488,3.577  c0.942,0.952,2.246,1.495,3.584,1.495c2.796,0,5.071-2.275,5.071-5.072v-12.25c0-1.337-0.543-2.642-1.488-3.578  C44.734,64.225,44.201,63.859,43.625,63.611z"/><path d="M11.322,35.317h60.551c2.797,0,5.072-2.275,5.072-5.072v-4.3h-0.004v-6.158h0.004v-4.292c0-2.797-2.275-5.072-5.072-5.072  H11.322c-2.797,0-5.072,2.275-5.072,5.072v14.75C6.25,33.042,8.525,35.317,11.322,35.317z"/></svg>