<svg xmlns="http://www.w3.org/2000/svg" width="4000" height="4000" viewBox="0 0 4000 4000">
  <defs>
    <style>
      .cls-1 {
        fill: #c45131;
      }

      .cls-1, .cls-2 {
        stroke: #000;
        stroke-width: 1px;
      }

      .cls-2 {
        fill: #d2694b;
      }

      .cls-2, .cls-3 {
        fill-rule: evenodd;
      }

      .cls-3 {
        fill: #fff;
      }
    </style>
  </defs>
  <rect id="Rounded_Rectangle_1" data-name="Rounded Rectangle 1" class="cls-1" width="4000" height="4000" rx="800" ry="800"/>
  <path id="Rounded_Rectangle_1_copy" data-name="Rounded Rectangle 1 copy" class="cls-2" d="M950.462,150.462H3049.54c441.83,0,800,358.173,800,800V3049.54c0,441.83-358.17,800-800,800H950.462c-441.827,0-800-358.17-800-800V950.462C150.462,508.635,508.635,150.462,950.462,150.462Z"/>
  <path id="P" class="cls-3" d="M1594.48,3167.42q36.7,0,58.38-23.35,21.69-23.355,21.7-56.74V2306.54h497.18q260.235,0,453.77-80.08t300.31-241.9q106.755-161.82,106.77-412.08,0-246.885-106.77-412.08-106.785-165.18-300.31-246.913-193.545-81.744-453.77-81.754H1277.5q-33.39,0-56.74,23.366-23.34,23.347-23.34,60.042V3087.33q0,33.39,23.34,56.74t56.74,23.35h316.98Zm73.4-1965.32h487.16q206.865,0,303.64,101.77,96.765,101.805,96.77,268.61,0,180.195-103.45,271.94-103.425,91.755-296.96,91.76H1667.88V1202.1Z"/>
</svg>
